<svg xmlns="http://www.w3.org/2000/svg" width="30" height="30" viewBox="0 0 30 30"><g><g><path fill="#84902c" d="M30 1.875v11.25h-1.25V1.875a.625.625 0 0 0-.625-.625H1.875a.625.625 0 0 0-.625.625v17.5c0 .345.28.624.625.624H8.75v1.25H1.875A1.874 1.874 0 0 1 0 19.375v-17.5C0 .84.84 0 1.875 0h26.25C29.16 0 30 .84 30 1.875zM8.125 3.75V6.25c0 .346-.28.624-.625.624H3.75a.624.624 0 0 1-.625-.624v-2.5c0-.346.28-.624.625-.624H7.5c.345 0 .625.278.625.625zm-1.25 1.874v-1.25h-2.5v1.25zm13.75 1.876A2.5 2.5 0 1 1 22.5 3.347a2.5 2.5 0 1 1 0 3.307 2.494 2.494 0 0 1-1.875.847zm1.25-2.5c0-.692-.56-1.25-1.25-1.25a1.249 1.249 0 1 0 0 2.499c.69 0 1.25-.56 1.25-1.25zm3.75 0c0-.692-.56-1.25-1.25-1.25a1.249 1.249 0 1 0 0 2.499c.69 0 1.25-.56 1.25-1.25zM4.375 11.25v1.25H10v1.25H3.75a.625.625 0 0 1-.625-.625v-2.5c0-.345.28-.626.625-.626h9.375v1.25zM30 20c-.007 5.52-4.48 9.993-10 10-5.523 0-10-4.476-10-10s4.477-10 10-10 10 4.476 10 10zm-1.25 0A8.76 8.76 0 0 0 20 11.25 8.75 8.75 0 1 0 28.75 20zm-7.5-1.25v-.625h-2.5v1.25h2.5c.69 0 1.25.56 1.25 1.249v1.25c0 .691-.56 1.251-1.25 1.251h-.625v1.25h-1.25v-1.25h-.625c-.69 0-1.25-.56-1.25-1.25v-.626h1.25v.625h2.5v-1.25h-2.5a1.25 1.25 0 0 1-1.25-1.25v-1.249c0-.69.56-1.25 1.25-1.25h.625v-1.25h1.25v1.25h.625c.69 0 1.25.56 1.25 1.25v.625z"/></g></g></svg>