<svg xmlns="http://www.w3.org/2000/svg" width="33" height="31" viewBox="0 0 33 31"><g><g><path fill="#84902c" d="M4.65 13.585c0-.29.23-.526.517-.526h6.716c.286 0 .517.236.517.526 0 .29-.231.527-.517.527H5.167a.522.522 0 0 1-.517-.527zm14.467 3.16c0 .29-.231.527-.517.527H5.167a.522.522 0 0 1-.517-.527c0-.291.23-.527.517-.527H18.6c.286 0 .517.236.517.527zm0 3.16c0 .289-.231.525-.517.525H5.167a.521.521 0 0 1-.517-.525.52.52 0 0 1 .517-.527H18.6a.52.52 0 0 1 .517.527zM33 3.16v13.134c0 1.72-1.374 3.122-3.064 3.122h-.553v5.266a.523.523 0 0 1-.516.525.513.513 0 0 1-.383-.171l-3.717-3.048v.06c0 1.722-1.375 3.123-3.064 3.123l-9.59.035-5.014 5.622a.512.512 0 0 1-.569.137.527.527 0 0 1-.33-.491v-5.267H3.064c-1.69 0-3.064-1.4-3.064-3.122V10.953C0 9.231 1.374 7.83 3.064 7.83l4.17-.01V3.124C7.233 1.4 8.607 0 10.296 0l19.64.036C31.627.038 33 1.438 33 3.16zm-9.267 7.755c0-1.142-.91-2.07-2.03-2.07L7.75 8.872H7.75l-4.685.011c-1.12 0-2.032.928-2.032 2.07v11.132c0 1.142.911 2.07 2.03 2.07h3.654c.285 0 .516.235.516.527v4.43l4.268-4.786a.513.513 0 0 1 .38-.171l9.82-.038c1.121 0 2.032-.928 2.032-2.068zm8.234 5.377V3.16c0-1.141-.91-2.07-2.03-2.07h-.001l-19.64-.037c-1.118 0-2.03.928-2.03 2.07V7.82l13.436-.026c1.69 0 3.065 1.4 3.065 3.12v9.508l3.583 2.898v-4.432c0-.29.231-.528.517-.528h1.07c1.119 0 2.03-.926 2.03-2.068z"/></g></g></svg>