<svg xmlns="http://www.w3.org/2000/svg" width="31" height="31" viewBox="0 0 31 31"><g><g><path fill="#84902c" d="M30.806 15.852l-2.443 2.443a7.492 7.492 0 0 1-2.122 1.482 7.943 7.943 0 0 1 .723 3.306v3.383a.499.499 0 0 1-.499.499h-3.382a7.942 7.942 0 0 1-3.306-.725 7.435 7.435 0 0 1-1.482 2.122l-2.442 2.444a.5.5 0 0 1-.705 0l-2.442-2.444a7.436 7.436 0 0 1-1.482-2.122 7.92 7.92 0 0 1-3.307.725H4.535a.499.499 0 0 1-.499-.5v-3.382c.001-1.141.248-2.268.723-3.304a7.493 7.493 0 0 1-2.122-1.483L.194 15.854a.498.498 0 0 1 0-.705l2.443-2.442a7.477 7.477 0 0 1 2.122-1.483 7.943 7.943 0 0 1-.723-3.306V4.535c0-.276.223-.498.499-.498h3.382c1.142 0 2.269.247 3.306.722a7.477 7.477 0 0 1 1.482-2.122L15.147.195a.5.5 0 0 1 .705 0l2.442 2.442a7.481 7.481 0 0 1 1.482 2.122 7.956 7.956 0 0 1 3.307-.722h3.382c.276 0 .499.222.499.498v3.383c-.001 1.142-.248 2.27-.723 3.306a7.456 7.456 0 0 1 2.122 1.483l2.442 2.442a.497.497 0 0 1 0 .703zM20.484 7.924v.2c0 1.048-.22 2.084-.648 3.041a7.439 7.439 0 0 1 3.04-.649h.2c.759 0 1.513.115 2.237.342.43-.92.654-1.924.654-2.94V5.034h-2.884c-1.016 0-2.02.223-2.94.655.226.723.341 1.477.341 2.235zm-2.19 5.487l-1.59 1.591L18.88 15a6.93 6.93 0 0 0 4.935-2.043l.105-.105c.336-.335.636-.702.898-1.097a6.498 6.498 0 0 0-1.742-.241h-.2a6.444 6.444 0 0 0-4.582 1.898zm.95-7.23a7.046 7.046 0 0 0-1.096.896l-.106.106a6.936 6.936 0 0 0-2.044 4.934v2.18l1.592-1.59a6.442 6.442 0 0 0 1.897-4.584v-.199a6.49 6.49 0 0 0-.243-1.743zm-7.14-.948a8.033 8.033 0 0 1 1.453 1.14l.105.105A7.957 7.957 0 0 1 15.5 9.356a7.955 7.955 0 0 1 1.838-2.878l.106-.105a7.98 7.98 0 0 1 1.453-1.14 6.456 6.456 0 0 0-1.307-1.891L15.5 1.254l-2.09 2.088a6.48 6.48 0 0 0-1.307 1.891zm-.591 2.691v.2a6.444 6.444 0 0 0 1.896 4.585l1.59 1.59v-2.18a6.937 6.937 0 0 0-2.043-4.933l-.106-.107a7.095 7.095 0 0 0-1.096-.896 6.484 6.484 0 0 0-.241 1.741zm-3.39 3.589h-.199a6.584 6.584 0 0 0-1.744.243c.261.395.562.762.897 1.097l.106.106a6.942 6.942 0 0 0 4.934 2.043h2.18l-1.592-1.591a6.442 6.442 0 0 0-4.582-1.898zm-3.09-6.48v2.885c0 1.015.224 2.02.655 2.94a7.49 7.49 0 0 1 2.236-.342h.2c1.047 0 2.083.22 3.04.649a7.453 7.453 0 0 1-.648-3.042v-.199c0-.758.115-1.512.342-2.236a6.944 6.944 0 0 0-2.94-.654zm.2 13.864a8.02 8.02 0 0 1 1.14-1.452l.106-.108A7.953 7.953 0 0 1 9.356 15.5a7.952 7.952 0 0 1-2.878-1.838l-.106-.106a8.015 8.015 0 0 1-1.14-1.452 6.446 6.446 0 0 0-1.89 1.307l-2.09 2.09 2.09 2.089a6.457 6.457 0 0 0 1.89 1.307zm5.283 4.18v-.2c0-1.048.22-2.084.648-3.04a7.437 7.437 0 0 1-3.04.647h-.2a7.508 7.508 0 0 1-2.236-.342 6.946 6.946 0 0 0-.655 2.94v2.885h2.884c1.017 0 2.02-.226 2.94-.654a7.497 7.497 0 0 1-.341-2.236zm2.19-5.487l1.59-1.591L12.12 16a6.932 6.932 0 0 0-4.935 2.043l-.105.106a7.011 7.011 0 0 0-.898 1.096c.567.16 1.153.24 1.742.242h.2a6.44 6.44 0 0 0 4.582-1.898zm-.95 7.23a7.035 7.035 0 0 0 1.096-.897l.106-.105a6.935 6.935 0 0 0 2.044-4.935v-2.18l-1.591 1.592a6.436 6.436 0 0 0-1.898 4.581v.201c.001.588.083 1.176.243 1.743zm7.14.95a8.008 8.008 0 0 1-1.453-1.142l-.105-.106a7.94 7.94 0 0 1-1.838-2.878 7.943 7.943 0 0 1-1.838 2.878l-.106.106a8.012 8.012 0 0 1-1.453 1.143 6.48 6.48 0 0 0 1.308 1.888l2.089 2.09 2.09-2.09a6.481 6.481 0 0 0 1.307-1.889zm.591-2.894a6.436 6.436 0 0 0-1.895-4.581L16 16.703v2.177a6.937 6.937 0 0 0 2.044 4.935l.106.104a7.06 7.06 0 0 0 1.096.9c.159-.568.24-1.154.241-1.742zm3.39-3.388h.2a6.517 6.517 0 0 0 1.743-.244 7.044 7.044 0 0 0-.897-1.096l-.106-.106A6.934 6.934 0 0 0 18.883 16h-2.18l1.592 1.59a6.44 6.44 0 0 0 4.582 1.9zm3.09 3.595c0-1.017-.224-2.02-.655-2.94a7.503 7.503 0 0 1-2.236.341h-.2a7.437 7.437 0 0 1-3.04-.648 7.45 7.45 0 0 1 .648 3.04v.201c0 .758-.115 1.512-.342 2.237.92.43 1.924.653 2.94.653h2.885zm3.781-7.583l-2.09-2.09a6.46 6.46 0 0 0-1.888-1.306 8.04 8.04 0 0 1-1.143 1.453l-.105.105a7.941 7.941 0 0 1-2.878 1.838 7.951 7.951 0 0 1 2.878 1.839l.106.106c.435.438.819.926 1.142 1.452a6.454 6.454 0 0 0 1.889-1.307z"/></g></g></svg>