<svg xmlns="http://www.w3.org/2000/svg" width="59" height="37" viewBox="0 0 59 37"><g><g><path fill="#84902c" d="M22.88 8.262c0-.798.662-1.444 1.48-1.444h33.16c.818 0 1.48.646 1.48 1.444 0 .797-.662 1.442-1.48 1.442H24.36c-.818 0-1.48-.645-1.48-1.442zm0 20.465c0-.798.662-1.443 1.48-1.443h33.16c.818 0 1.48.645 1.48 1.443s-.662 1.443-1.48 1.443H24.36c-.818 0-1.48-.645-1.48-1.443zm-5.91-24.96v9c0 2.078-1.732 3.767-3.863 3.767H3.876c-2.13 0-3.864-1.689-3.864-3.766v-9C.012 1.69 1.745 0 3.876 0h9.231c2.13 0 3.864 1.69 3.864 3.767zm-2.948 0a.903.903 0 0 0-.915-.892H3.876a.903.903 0 0 0-.915.892v9c0 .493.41.892.915.892h9.231a.903.903 0 0 0 .915-.891zM.012 33.234v-9.001c0-2.078 1.733-3.767 3.864-3.767h9.22c2.13 0 3.863 1.689 3.863 3.767v9c0 2.077-1.734 3.767-3.864 3.767H3.864C1.734 37 0 35.31 0 33.234zm2.949-9.013v9c0 .493.41.892.915.892h9.22a.903.903 0 0 0 .914-.892v-9a.903.903 0 0 0-.915-.892H3.864c-.506 0-.915.4-.915.892z"/></g></g></svg>