<svg xmlns="http://www.w3.org/2000/svg" width="53" height="53" viewBox="0 0 53 53"><g><g><path fill="#84902c" d="M47.97 39.028c1.123 1.115 1.713 2.443 1.713 3.827 0 1.373-.579 2.713-1.68 3.862-.479.502-.969.982-1.447 1.44-.701.68-1.37 1.316-1.948 2.02-.011.022-.033.033-.044.055C42.872 52.074 40.713 53 38.142 53c-.223 0-.468-.01-.701-.023-3.818-.245-7.235-1.684-9.795-2.901-6.7-3.248-12.565-7.857-17.44-13.694-4.018-4.843-6.711-9.363-8.514-14.24C.957 20.155 0 17.12.267 13.862c.178-2.022.99-3.762 2.415-5.19l3.784-3.829.023-.022c1.113-1.071 2.426-1.64 3.784-1.64 1.358 0 2.649.569 3.728 1.64a53.17 53.17 0 0 1 2.093 2.076c.333.357.69.714 1.035 1.06l3.038 3.047c2.337 2.344 2.337 5.38 0 7.723-.312.313-.623.636-.935.949-.823.837-1.67 1.707-2.582 2.544.68 1.507 1.614 2.99 3.005 4.755 2.872 3.537 5.866 6.271 9.16 8.37.323.2.701.39 1.102.591.278.145.567.29.857.446l3.517-3.515c1.124-1.127 2.437-1.718 3.806-1.718 1.38 0 2.682.602 3.762 1.73zm-2.138 2.11l-6.132-6.15-.022-.023c-.345-.379-.913-.814-1.603-.814-.701 0-1.302.457-1.68.836l-3.807 3.817c-.19.19-.768.77-1.692.77-.367 0-.723-.09-1.102-.279-.044-.022-.089-.055-.133-.078-.323-.2-.701-.39-1.102-.592a15.07 15.07 0 0 1-1.369-.747c-3.573-2.266-6.812-5.223-9.883-9.018l-.011-.011c-1.692-2.154-2.805-3.962-3.595-5.882l-.034-.1c-.2-.636-.378-1.574.579-2.533.011-.023.033-.034.056-.056.968-.87 1.858-1.763 2.793-2.722.323-.314.635-.637.957-.96 1.18-1.184 1.18-2.278 0-3.46l-3.038-3.047c-.356-.369-.712-.726-1.057-1.083a56.442 56.442 0 0 0-2.004-1.998l-.033-.033c-.356-.357-.924-.78-1.625-.78-.568 0-1.146.278-1.692.792l-3.795 3.805c-.924.926-1.425 2.009-1.536 3.314-.167 2.043.211 4.208 1.247 6.987 1.68 4.554 4.218 8.794 8.013 13.38 4.597 5.503 10.128 9.844 16.428 12.902 2.303 1.105 5.375 2.4 8.68 2.612.168.011.346.011.513.011 1.736 0 3.06-.57 4.185-1.774.69-.815 1.424-1.54 2.148-2.233.478-.468.923-.892 1.357-1.361-.01.01-.01 0 0 0 1.136-1.183 1.136-2.355-.01-3.493zM27.468 10.958a1.51 1.51 0 0 1 1.736-1.227 17.149 17.149 0 0 1 9.294 4.832 17.229 17.229 0 0 1 4.82 9.319 1.508 1.508 0 0 1-1.236 1.741c-.09.011-.167.023-.256.023a1.494 1.494 0 0 1-1.48-1.251 14.24 14.24 0 0 0-3.985-7.7c-2.115-2.12-4.764-3.504-7.68-3.996-.823-.134-1.357-.926-1.213-1.74zm24.163 14.207c-.089.011-.167.023-.256.023a1.495 1.495 0 0 1-1.48-1.25c-.88-5.2-3.328-9.944-7.09-13.716-3.762-3.761-8.492-6.228-13.678-7.11a1.513 1.513 0 0 1-1.236-1.74C28.036.558 28.804 0 29.616.145c5.81.993 11.097 3.74 15.304 7.958 4.207 4.218 6.945 9.52 7.935 15.344a1.478 1.478 0 0 1-1.224 1.72z"/></g></g></svg>