<svg xmlns="http://www.w3.org/2000/svg" width="67" height="59" viewBox="0 0 67 59"><g><g><path fill="#84902c" d="M56.033 41.635a1.464 1.464 0 0 1-.054.05l-19.655 17.04a1.113 1.113 0 0 1-.73.274H29.98c-.132.001-.263-.021-.387-.066l-17.62-6.513H0v-2.193h12.16c.132.002.263.028.387.076l17.631 6.503h5.008l18.471-16.01-2.21-2.28-16.073 11.71c-.322.232-.744.273-1.106.11L22.01 44.744c-.483-.23-.73-.771-.586-1.283a1.105 1.105 0 0 1 1.172-.8l5.936.625 4.09-.506v-2.718H27.99l-9.075-.921-6.29 2.73c-.14.059-.29.088-.442.087H0v-2.193h11.95l6.345-2.697c.173-.076.364-.106.553-.088l9.307.943h5.527c.61 0 1.106.491 1.106 1.097v4.737a1.1 1.1 0 0 1-.973 1.096l-5.074.56 5.781 2.697L50.85 36.18a1.114 1.114 0 0 1 1.437.12l3.747 3.784a1.09 1.09 0 0 1-.001 1.55zM66.326 27.48v2.193h-7.827c-.3 0-.588-.124-.796-.34l-5.88-6.107-11.43-1.031h-3.054c-1.117 4.975-5.585 8.584-10.809 8.575-6.105 0-11.054-4.91-11.054-10.966 0-5.506 4.09-10.063 9.42-10.846L36.933.275c.257-.199.588-.275.907-.21L56.63 4.454c.154.03.298.099.42.197L67 12.326l-1.349 1.765-9.76-7.534-18.063-4.21-9.26 6.68c1.056.196 2.068.542 3.008 1.02l6.616-3.28c.289-.13.619-.13.907 0l5.527 2.192-.818 2.04-5.063-2.05-5.057 2.499a10.969 10.969 0 0 1 2.476 2.978l4.118-.839a.916.916 0 0 1 .453 0l6.08 1.337 5.682-.603.265 2.193-5.87.691a1.125 1.125 0 0 1-.376 0l-6.035-1.338-4.323.867-.22 3.29h4.554L52.43 21.12c.27.023.522.145.708.34l5.837 6.02zm-31.571-5.285a1.101 1.101 0 0 1-1.106-1.162l.354-5.34c.01-.148.048-.289.11-.415-2.287-3.79-7.134-5.343-11.274-3.456-4.438 2.023-6.383 7.231-4.344 11.633 2.04 4.403 7.29 6.332 11.728 4.31a8.794 8.794 0 0 0 4.814-5.57zm-3.77-.088c-.033 1.754-1.802 3.18-4.057 3.18h-.796c-2.21 0-4.024-1.426-4.024-3.235v-.296h2.211v.296c0 .493.774 1.042 1.813 1.042h.796c1.04 0 1.813-.549 1.813-1.042s-.52-.888-1.404-1.02l-1.912-.285a3.525 3.525 0 0 1-3.316-3.136c0-1.664 1.41-2.979 3.316-3.242v-1.143h2.21v1.143c1.907.263 3.317 1.578 3.317 3.242v.296h-2.21v-.296c0-.493-.775-1.042-1.814-1.042h-.796c-1.039-.055-1.813.494-1.813 1.042 0 .549.52.888 1.404 1.02l1.946.285a3.524 3.524 0 0 1 3.316 3.19z"/></g></g></svg>